<svg width="378" height="88" viewBox="0 0 378 88" fill="none" xmlns="http://www.w3.org/2000/svg">
<path d="M43.0225 86.1546L18.1793 53.5281V86.1546H0.184204V12.269H18.1793V44.6917L42.8186 12.269H63.9743L35.3418 48.4811L65.0278 86.1546H43.0225Z" fill="#62C862"/>
<path d="M119.557 61.1069H78.8088C79.0807 64.7604 80.2702 67.5472 82.3263 69.4674C84.3994 71.4046 86.9313 72.3562 89.9559 72.3562C94.442 72.3562 97.5686 70.453 99.3188 66.6636H118.469C117.484 70.521 115.717 74.0046 113.151 77.0803C110.585 80.173 107.373 82.586 103.516 84.3363C99.6587 86.0866 95.3426 86.9702 90.5677 86.9702C84.8072 86.9702 79.6924 85.7467 75.1894 83.2827C70.7033 80.8357 67.1859 77.3182 64.671 72.7641C62.1391 68.2099 60.8816 62.8741 60.8816 56.7567C60.8816 50.6562 62.1221 45.3204 64.62 40.7662C67.1009 36.2121 70.6014 32.6946 75.0874 30.2306C79.5735 27.7836 84.7392 26.5431 90.5677 26.5431C96.2432 26.5431 101.307 27.7326 105.725 30.1286C110.143 32.5076 113.593 35.9232 116.091 40.3414C118.588 44.7596 119.829 49.9255 119.829 55.822C119.863 57.5213 119.761 59.2886 119.557 61.1069ZM101.443 51.115C101.443 48.0223 100.389 45.5753 98.2823 43.74C96.1752 41.9218 93.5414 41.0041 90.3808 41.0041C87.3731 41.0041 84.8242 41.8878 82.7511 43.6381C80.678 45.3883 79.4035 47.8863 78.9108 51.115H101.443Z" fill="#62C862"/>
<path d="M146.371 27.4265V86.1543H128.376V27.4265H146.371Z" fill="#62C862"/>
<path d="M226.168 26.5769C221.326 26.5769 216.941 27.8004 213.016 30.2644C209.091 32.7284 205.981 36.2289 203.704 40.8C201.427 45.3542 200.289 50.656 200.289 56.6885C200.289 62.721 201.427 68.0398 203.704 72.6279C205.981 77.2161 209.091 80.7676 213.016 83.2656C216.941 85.7635 221.292 87.004 226.066 87.004C230.213 87.004 233.832 86.1544 236.959 84.4721C240.085 82.7898 242.515 80.5807 244.266 77.8448V86.1544H262.261V27.4266H244.266V35.7361C242.583 33.0003 240.17 30.7912 237.061 29.1089C233.934 27.4266 230.315 26.5769 226.168 26.5769ZM242.651 56.7905C242.651 61.2766 241.411 64.8282 238.913 67.4281C236.432 70.028 233.39 71.3195 229.805 71.3195C226.219 71.3195 223.195 70.011 220.697 67.3771C218.199 64.7432 216.958 61.1917 216.958 56.6885C216.958 52.2024 218.199 48.6678 220.697 46.1019C223.178 43.5359 226.219 42.2614 229.805 42.2614C233.373 42.2614 236.415 43.5529 238.913 46.1528C241.411 48.7528 242.651 52.3043 242.651 56.7905Z" fill="#62C862"/>
<path d="M194.562 77.1652C193.577 75.177 192.761 73.0699 192.098 70.8947H187.425C185.454 70.8947 184.061 70.5209 183.211 69.7392C182.362 68.9745 181.954 67.7001 181.954 65.9498V42.3805H192.132H193.662H193.747V42.1086V38.0473V27.4436H181.954V13.1185H163.959V27.4436H156.805V42.3805H163.959V65.7459C163.959 72.9679 165.777 78.1847 169.43 81.3794C173.084 84.5741 178.164 86.1715 184.69 86.1715H200.714C198.318 83.5545 196.261 80.5638 194.562 77.1652Z" fill="#62C862"/>
<path d="M144.876 2.88881C142.82 0.968601 140.322 0 137.382 0C134.426 0 131.928 0.951608 129.872 2.85482C127.815 4.75804 126.796 7.37496 126.796 10.7226C126.796 14.0532 127.815 16.7041 129.872 18.6583C131.928 20.6125 134.426 21.5981 137.365 21.5981C140.305 21.5981 142.82 20.6295 144.859 18.7093C146.915 16.7891 147.935 14.1552 147.935 10.8076C147.952 7.45993 146.932 4.82601 144.876 2.88881Z" fill="#62C862"/>
<path d="M362.891 30.2645C358.269 27.8175 353.069 26.577 347.308 26.577C341.548 26.577 336.365 27.8005 331.726 30.2645C327.104 32.7285 323.451 36.246 320.783 40.8512C318.115 45.4393 316.79 50.7581 316.79 56.7906C316.79 62.8911 318.098 68.2269 320.732 72.798C323.366 77.3521 326.968 80.8697 331.573 83.3167C336.161 85.7807 341.344 87.0042 347.105 87.0042C352.848 87.0042 358.065 85.7807 362.738 83.3167C367.394 80.8697 371.081 77.3351 373.783 72.747C376.485 68.1589 377.827 62.8401 377.827 56.7906C377.827 50.7581 376.502 45.4393 373.834 40.8512C371.166 36.246 367.53 32.7285 362.891 30.2645ZM355.89 67.6321C353.477 70.1471 350.537 71.4216 347.105 71.4216C343.672 71.4216 340.8 70.1641 338.523 67.6321C336.246 65.1002 335.108 61.4976 335.108 56.7906C335.108 52.0156 336.263 48.3791 338.574 45.8981C340.885 43.4001 343.808 42.1596 347.308 42.1596C350.741 42.1596 353.647 43.4171 355.992 45.9491C358.337 48.481 359.509 52.0835 359.509 56.7906C359.526 61.4976 358.32 65.1172 355.89 67.6321Z" fill="#62C862"/>
<path d="M317.826 28.0724C316.042 27.2227 313.918 26.7979 311.097 26.7979C308.379 26.7979 303.723 27.7325 300.562 29.5848C297.401 31.454 294.767 33.986 292.66 37.2146V27.4267H274.665V86.1545H292.66V58.8977C292.66 54.0547 293.782 50.6731 296.025 48.7359C298.268 46.8157 301.632 45.8471 306.135 45.8471H307.903C308.803 42.2446 310.163 38.8629 311.981 35.7362C313.629 32.8814 315.583 30.3325 317.826 28.0724Z" fill="#62C862"/>
</svg>
